Coordinates
version=1
nRows=17
nColumns=24
inDegrees=yes

Units are S.I. units (second, meters, Newtons, ...)
Angles are in degrees.

endheader
time	pelvis_tilt	pelvis_list	pelvis_rotation	pelvis_tx	pelvis_ty	pelvis_tz	hip_flexion_r	hip_adduction_r	hip_rotation_r	knee_angle_r	ankle_angle_r	subtalar_angle_r	mtp_angle_r	hip_flexion_l	hip_adduction_l	hip_rotation_l	knee_angle_l	ankle_angle_l	subtalar_angle_l	mtp_angle_l	lumbar_extension	lumbar_bending	lumbar_rotation
      1.37466667	     -0.29195032	      1.13006720	     -5.19131291	      0.45407782	      1.08269894	      0.31880813	     10.88321090	     -5.85216939	     -6.17169223	    -64.87342342	      1.74648950	     -0.99871257	      8.03963369	      9.89868997	      3.34832149	     -0.27140951	    -17.86749501	      9.08344358	      2.07563343	      1.84683573	    -13.64208122	     -3.39834904	     -0.14646638
      1.37883333	     -0.29057785	      0.99362619	     -5.08586423	      0.45910091	      1.08369272	      0.31854240	     11.35597046	     -5.65722008	     -6.25018693	    -64.52121653	      2.10229503	     -0.72336476	      8.06786017	      9.38422253	      3.24636943	     -0.15495670	    -17.43718141	      9.10648751	      2.13001579	      1.82722957	    -13.62936609	     -3.22517693	     -0.24756437
      1.38300000	     -0.27319892	      0.85984305	     -4.97369395	      0.46412251	      1.08469537	      0.31827123	     11.80003024	     -5.46753500	     -6.33681633	    -64.12439039	      2.46022909	     -0.43734792	      8.09930950	      8.84897524	      3.14788609	     -0.03164175	    -16.99522957	      9.11984138	      2.17728066	      1.80840186	    -13.63249526	     -3.05350969	     -0.35484197
      1.38716667	     -0.25732148	      0.70794676	     -4.85197102	      0.46911985	      1.08564197	      0.31798461	     12.23361207	     -5.25551160	     -6.43086836	    -63.68423026	      2.80452318	     -0.16766987	      8.12819485	      8.32414972	      3.02750522	      0.08966271	    -16.57080224	      9.13946749	      2.24321424	      1.79488394	    -13.64688336	     -2.86199152	     -0.44606337
      1.39133333	     -0.24181579	      0.59591008	     -4.73327279	      0.47413536	      1.08652739	      0.31770560	     12.66840744	     -5.09468624	     -6.52792632	    -63.22481147	      3.16073655	      0.12515712	      8.16247644	      7.79194821	      2.95046772	      0.21836528	    -16.12170180	      9.15747413	      2.27442155	      1.77903053	    -13.63844380	     -2.70975260	     -0.57478510
      1.39550000	     -0.25492277	      0.45973655	     -4.60848464	      0.47915295	      1.08732625	      0.31742600	     13.12018210	     -4.89831705	     -6.62941731	    -62.72012506	      3.48606841	      0.30555529	      8.18134875	      7.30183133	      2.83719445	      0.31065347	    -15.69630470	      9.15871761	      2.36015367	      1.77270547	    -13.59195872	     -2.51747616	     -0.62338220
      1.39966667	     -0.24446310	      0.32164879	     -4.46981729	      0.48411986	      1.08812664	      0.31712757	     13.53491621	     -4.70502327	     -6.73822723	    -62.17385207	      3.83468292	      0.61126798	      8.20886211	      6.79042280	      2.72861618	      0.46463567	    -15.27503649	      9.18651758	      2.40325210	      1.76342255	    -13.61055964	     -2.35341253	     -0.75423580
      1.40383333	     -0.23486897	      0.22329973	     -4.33440899	      0.48911251	      1.08883257	      0.31682504	     13.95491319	     -4.56545753	     -6.85419583	    -61.62313153	      4.17045406	      0.86807499	      8.24278109	      6.27004999	      2.66439552	      0.62242217	    -14.82596066	      9.21091892	      2.39799480	      1.74968836	    -13.59341967	     -2.20181835	     -0.93025960
      1.40800000	     -0.25469746	      0.09468608	     -4.19714205	      0.49409790	      1.08947732	      0.31655012	     14.38822527	     -4.37715331	     -6.96122961	    -61.01607436	      4.48557661	      1.03046153	      8.26188069	      5.79812365	      2.55393845	      0.73429791	    -14.41274670	      9.21316684	      2.46491102	      1.74312681	    -13.55430494	     -2.02934960	     -0.99613863
      1.41216667	     -0.24448310	     -0.00739479	     -4.05523483	      0.49906121	      1.09009241	      0.31624518	     14.78909160	     -4.23369298	     -7.08128430	    -60.39577039	      4.80025579	      1.25827035	      8.28866713	      5.28662007	      2.48054439	      0.89520992	    -13.97730300	      9.25369893	      2.46961427	      1.73282811	    -13.54717798	     -1.88116644	     -1.15966353
      1.41633333	     -0.26980525	     -0.12061545	     -3.91305630	      0.50402232	      1.09061243	      0.31597900	     15.21617291	     -4.06300634	     -7.18741330	    -59.73538865	      5.10834685	      1.38733903	      8.30516497	      4.82904759	      2.38302842	      1.01728408	    -13.57307405	      9.26399890	      2.51975548	      1.72657054	    -13.50170368	     -1.73292737	     -1.24118764
      1.42050000	     -0.28221674	     -0.21479099	     -3.76880365	      0.50897509	      1.09108310	      0.31569120	     15.62687727	     -3.92461133	     -7.30335884	    -59.06042430	      5.41567097	      1.52626267	      8.32788302	      4.34700400	      2.31274215	      1.19109787	    -13.14088402	      9.27889247	      2.49503222	      1.71373245	    -13.46941131	     -1.58290367	     -1.42577489
      1.42466667	     -0.31024577	     -0.32383407	     -3.62770331	      0.51392287	      1.09149529	      0.31543512	     16.04016813	     -3.76007440	     -7.40695552	    -58.34058097	      5.69698942	      1.61306656	      8.33751988	      3.90319336	      2.21381565	      1.29679009	    -12.75652133	      9.32330848	      2.56105881	      1.71043683	    -13.41648972	     -1.43920750	     -1.47441500
      1.42883333	     -0.34964745	     -0.41988613	     -3.48947475	      0.51886331	      1.09180987	      0.31518064	     16.46499410	     -3.61245440	     -7.50853162	    -57.60997119	      5.98595986	      1.67666547	      8.34430388	      3.47237130	      2.12765731	      1.40581088	    -12.36846395	      9.37013007	      2.62382587	      1.70849702	    -13.35609719	     -1.29161110	     -1.54337348
      1.43300000	     -0.39053089	     -0.50315474	     -3.35583133	      0.52378984	      1.09206573	      0.31495571	     16.88724786	     -3.47645614	     -7.60102163	    -56.85798268	      6.26801162	      1.71475601	      8.34849263	      3.04613483	      2.05278606	      1.51715845	    -11.98315481	      9.42768600	      2.68420112	      1.70760520	    -13.29099986	     -1.16507980	     -1.61804007
      1.43716667	     -0.40875325	     -0.60690559	     -3.19622637	      0.52868032	      1.09234248	      0.31468941	     17.25847898	     -3.32280137	     -7.71149718	    -56.04735949	      6.53721285	      1.76374249	      8.34816197	      2.60943653	      1.95858203	      1.67699091	    -11.62388328	      9.47625388	      2.67668601	      1.70503427	    -13.26153447	     -1.02930892	     -1.76311099
      1.44133333	     -0.44732019	     -0.67253487	     -3.07261996	      0.53357640	      1.09248481	      0.31449065	     17.66908401	     -3.20436942	     -7.78380376	    -55.25724717	      6.81611204	      1.74225908	      8.34735631	      2.18637959	      1.89906031	      1.78133282	    -11.24203268	      9.53916878	      2.73419505	      1.70508381	    -13.20191778	     -0.91914606	     -1.82845685
